solid OpenSCAD_Model
  facet normal 1 -0 0
    outer loop
      vertex 196.7 3.3 9
      vertex 196.7 196.7 3
      vertex 196.7 196.7 9
    endloop
  endfacet
  facet normal 1 0 0
    outer loop
      vertex 196.7 196.7 3
      vertex 196.7 3.3 9
      vertex 196.7 3.3 3
    endloop
  endfacet
  facet normal 0 0 1
    outer loop
      vertex 196.7 196.7 9
      vertex 194.7 194.7 9
      vertex 196.7 3.3 9
    endloop
  endfacet
  facet normal 0 0 1
    outer loop
      vertex 196.7 196.7 9
      vertex 5.3 194.7 9
      vertex 194.7 194.7 9
    endloop
  endfacet
  facet normal 0 0 1
    outer loop
      vertex 5.3 194.7 9
      vertex 3.3 196.7 9
      vertex 5.3 5.3 9
    endloop
  endfacet
  facet normal -0 0 1
    outer loop
      vertex 3.3 196.7 9
      vertex 5.3 194.7 9
      vertex 196.7 196.7 9
    endloop
  endfacet
  facet normal -0 0 1
    outer loop
      vertex 194.7 5.3 9
      vertex 196.7 3.3 9
      vertex 194.7 194.7 9
    endloop
  endfacet
  facet normal -0 0 1
    outer loop
      vertex 5.3 5.3 9
      vertex 196.7 3.3 9
      vertex 194.7 5.3 9
    endloop
  endfacet
  facet normal 0 0 1
    outer loop
      vertex 5.3 5.3 9
      vertex 3.3 3.3 9
      vertex 196.7 3.3 9
    endloop
  endfacet
  facet normal 0 0 1
    outer loop
      vertex 3.3 3.3 9
      vertex 5.3 5.3 9
      vertex 3.3 196.7 9
    endloop
  endfacet
  facet normal 0 0 1
    outer loop
      vertex 200 200 3
      vertex 196.7 196.7 3
      vertex 200 0 3
    endloop
  endfacet
  facet normal 0 0 1
    outer loop
      vertex 200 200 3
      vertex 3.3 196.7 3
      vertex 196.7 196.7 3
    endloop
  endfacet
  facet normal 0 0 1
    outer loop
      vertex 3.3 196.7 3
      vertex 0 200 3
      vertex 3.3 3.3 3
    endloop
  endfacet
  facet normal -0 0 1
    outer loop
      vertex 0 200 3
      vertex 3.3 196.7 3
      vertex 200 200 3
    endloop
  endfacet
  facet normal -0 0 1
    outer loop
      vertex 196.7 3.3 3
      vertex 200 0 3
      vertex 196.7 196.7 3
    endloop
  endfacet
  facet normal -0 0 1
    outer loop
      vertex 3.3 3.3 3
      vertex 200 0 3
      vertex 196.7 3.3 3
    endloop
  endfacet
  facet normal 0 0 1
    outer loop
      vertex 3.3 3.3 3
      vertex 0 0 3
      vertex 200 0 3
    endloop
  endfacet
  facet normal 0 0 1
    outer loop
      vertex 0 0 3
      vertex 3.3 3.3 3
      vertex 0 200 3
    endloop
  endfacet
  facet normal -0 0 1
    outer loop
      vertex 5.3 194.7 3
      vertex 194.7 5.3 3
      vertex 194.7 194.7 3
    endloop
  endfacet
  facet normal 0 0 1
    outer loop
      vertex 194.7 5.3 3
      vertex 5.3 194.7 3
      vertex 5.3 5.3 3
    endloop
  endfacet
  facet normal -1 0 0
    outer loop
      vertex 3.3 3.3 3
      vertex 3.3 196.7 9
      vertex 3.3 196.7 3
    endloop
  endfacet
  facet normal -1 -0 0
    outer loop
      vertex 3.3 196.7 9
      vertex 3.3 3.3 3
      vertex 3.3 3.3 9
    endloop
  endfacet
  facet normal 0 1 -0
    outer loop
      vertex 196.7 196.7 3
      vertex 3.3 196.7 9
      vertex 196.7 196.7 9
    endloop
  endfacet
  facet normal 0 1 0
    outer loop
      vertex 3.3 196.7 9
      vertex 196.7 196.7 3
      vertex 3.3 196.7 3
    endloop
  endfacet
  facet normal 0 -1 0
    outer loop
      vertex 3.3 3.3 3
      vertex 196.7 3.3 9
      vertex 3.3 3.3 9
    endloop
  endfacet
  facet normal 0 -1 -0
    outer loop
      vertex 196.7 3.3 9
      vertex 3.3 3.3 3
      vertex 196.7 3.3 3
    endloop
  endfacet
  facet normal -1 0 0
    outer loop
      vertex 194.7 5.3 3
      vertex 194.7 194.7 9
      vertex 194.7 194.7 3
    endloop
  endfacet
  facet normal -1 -0 0
    outer loop
      vertex 194.7 194.7 9
      vertex 194.7 5.3 3
      vertex 194.7 5.3 9
    endloop
  endfacet
  facet normal 1 -0 0
    outer loop
      vertex 5.3 5.3 9
      vertex 5.3 194.7 3
      vertex 5.3 194.7 9
    endloop
  endfacet
  facet normal 1 0 0
    outer loop
      vertex 5.3 194.7 3
      vertex 5.3 5.3 9
      vertex 5.3 5.3 3
    endloop
  endfacet
  facet normal 0 -1 0
    outer loop
      vertex 5.3 194.7 3
      vertex 194.7 194.7 9
      vertex 5.3 194.7 9
    endloop
  endfacet
  facet normal 0 -1 -0
    outer loop
      vertex 194.7 194.7 9
      vertex 5.3 194.7 3
      vertex 194.7 194.7 3
    endloop
  endfacet
  facet normal 0 1 -0
    outer loop
      vertex 194.7 5.3 3
      vertex 5.3 5.3 9
      vertex 194.7 5.3 9
    endloop
  endfacet
  facet normal 0 1 0
    outer loop
      vertex 5.3 5.3 9
      vertex 194.7 5.3 3
      vertex 5.3 5.3 3
    endloop
  endfacet
  facet normal 1 -0 0
    outer loop
      vertex 200 0 3
      vertex 200 200 0
      vertex 200 200 3
    endloop
  endfacet
  facet normal 1 0 0
    outer loop
      vertex 200 200 0
      vertex 200 0 3
      vertex 200 0 0
    endloop
  endfacet
  facet normal 0 0 -1
    outer loop
      vertex 0 0 0
      vertex 200 200 0
      vertex 200 0 0
    endloop
  endfacet
  facet normal -0 0 -1
    outer loop
      vertex 200 200 0
      vertex 0 0 0
      vertex 0 200 0
    endloop
  endfacet
  facet normal -1 0 0
    outer loop
      vertex 0 0 0
      vertex 0 200 3
      vertex 0 200 0
    endloop
  endfacet
  facet normal -1 -0 0
    outer loop
      vertex 0 200 3
      vertex 0 0 0
      vertex 0 0 3
    endloop
  endfacet
  facet normal 0 1 -0
    outer loop
      vertex 200 200 0
      vertex 0 200 3
      vertex 200 200 3
    endloop
  endfacet
  facet normal 0 1 0
    outer loop
      vertex 0 200 3
      vertex 200 200 0
      vertex 0 200 0
    endloop
  endfacet
  facet normal 0 -1 0
    outer loop
      vertex 0 0 0
      vertex 200 0 3
      vertex 0 0 3
    endloop
  endfacet
  facet normal 0 -1 -0
    outer loop
      vertex 200 0 3
      vertex 0 0 0
      vertex 200 0 0
    endloop
  endfacet
endsolid OpenSCAD_Model
